<svg xmlns="http://www.w3.org/2000/svg" viewBox="0 0 24 24"><defs><style>.d{fill:#e6e7e8}.e{fill:#864e20}</style></defs><rect x="1" y="1" width="22" height="22" rx="7.656" style="fill:#f8de40"/><path d="M23 13.938a14.69 14.69 0 0 1-12.406 6.531c-5.542 0-6.563-1-9.142-2.529A7.66 7.66 0 0 0 8.656 23h6.688A7.656 7.656 0 0 0 23 15.344z" style="fill:#e7c930"/><path d="M7.127 12h9.746a1.937 1.937 0 0 1 1.937 1.937 1.938 1.938 0 0 1-1.937 1.938H7.127a1.937 1.937 0 0 1-1.937-1.937A1.937 1.937 0 0 1 7.127 12z" style="fill:#fff"/><ellipse class="d" cx="12" cy="13.938" rx="6.188" ry=".25"/><ellipse class="d" cx="7.257" cy="13.938" rx=".208" ry="1.438"/><ellipse class="d" cx="9.628" cy="13.938" rx=".208" ry="1.438"/><ellipse class="d" cx="12" cy="13.938" rx=".208" ry="1.438"/><ellipse class="d" cx="14.372" cy="13.938" rx=".208" ry="1.438"/><ellipse class="d" cx="16.743" cy="13.938" rx=".208" ry="1.438"/><path class="e" d="M7.055 7.313A1.747 1.747 0 1 0 8.8 9.059a1.747 1.747 0 0 0-1.745-1.746zM16.958 7.313A1.747 1.747 0 1 0 18.7 9.059a1.747 1.747 0 0 0-1.742-1.746z"/></svg>